<svg width="258" height="48" viewBox="0 0 258 48" fill="none" xmlns="http://www.w3.org/2000/svg">
<path d="M9.25867 46.2347V37.2587H17.2373C19.232 37.2587 21.0311 36.9654 22.6347 36.3787C24.2382 35.7529 25.6071 34.8925 26.7413 33.7974C27.8756 32.6632 28.736 31.3138 29.3227 29.7494C29.9093 28.1458 30.2027 26.3858 30.2027 24.4694C30.2027 22.4747 29.9093 20.6952 29.3227 19.1307C28.736 17.5663 27.8756 16.2365 26.7413 15.1414C25.6071 14.0463 24.2382 13.2249 22.6347 12.6774C21.0311 12.0907 19.232 11.7974 17.2373 11.7974H9.25867V2.82138H16.7093C20.5813 2.82138 23.9644 3.38849 26.8587 4.52271C29.7529 5.65693 32.1778 7.20182 34.1333 9.15738C36.0889 11.1129 37.536 13.3618 38.4747 15.904C39.4524 18.4072 39.9413 21.0472 39.9413 23.824V25.1147C39.9413 27.696 39.4524 30.2578 38.4747 32.8C37.536 35.3032 36.0889 37.5716 34.1333 39.6054C32.1778 41.6 29.7529 43.2036 26.8587 44.416C23.9644 45.6285 20.5813 46.2347 16.7093 46.2347H9.25867ZM0.810669 46.2347V2.82138H10.432V46.2347H0.810669Z" fill="black"/>
<path d="M55.796 46.9974C52.0804 46.9974 49.2253 45.8045 47.2307 43.4187C45.236 40.9938 44.2387 37.3565 44.2387 32.5067V13.8507H53.6253V32.976C53.6253 34.6969 54.1142 36.0658 55.092 37.0827C56.0698 38.0996 57.38 38.608 59.0227 38.608C60.7044 38.608 62.0733 38.08 63.1293 37.024C64.1853 35.968 64.7133 34.5405 64.7133 32.7414V13.8507H74.1V46H66.6493V32.448H67.2947C67.2947 35.6943 66.8644 38.4125 66.004 40.6027C65.1827 42.7538 63.9507 44.3574 62.308 45.4134C60.6653 46.4694 58.6316 46.9974 56.2067 46.9974H55.796Z" fill="black"/>
<path d="M104.227 46L94.0778 30.9814H89.5605L102.643 13.8507H112.499L100.179 29.808L100.297 25.232L114.787 46H104.227ZM81.5818 46V3.17338H90.9685V46H81.5818Z" fill="black"/>
<path d="M136.723 46V36.496H135.139V26.1707C135.139 24.528 134.748 23.296 133.966 22.4747C133.183 21.6534 131.932 21.2427 130.211 21.2427C129.351 21.2427 128.216 21.2623 126.808 21.3014C125.4 21.3405 123.953 21.3992 122.467 21.4774C120.981 21.5556 119.631 21.6338 118.419 21.712V13.792C119.319 13.7138 120.375 13.6356 121.587 13.5574C122.799 13.4792 124.051 13.4205 125.342 13.3814C126.632 13.3423 127.845 13.3227 128.979 13.3227C132.264 13.3227 135.022 13.792 137.251 14.7307C139.519 15.6694 141.24 17.0969 142.414 19.0134C143.587 20.8907 144.174 23.3156 144.174 26.288V46H136.723ZM126.456 46.8214C124.149 46.8214 122.115 46.4107 120.355 45.5894C118.634 44.768 117.285 43.5947 116.307 42.0694C115.329 40.5049 114.84 38.6472 114.84 36.496C114.84 34.1494 115.447 32.2329 116.659 30.7467C117.871 29.2214 119.573 28.1067 121.763 27.4027C123.953 26.6596 126.476 26.288 129.331 26.288H136.195V31.5094H129.272C127.63 31.5094 126.359 31.92 125.459 32.7414C124.599 33.5236 124.168 34.5992 124.168 35.968C124.168 37.2587 124.599 38.3147 125.459 39.136C126.359 39.9183 127.63 40.3094 129.272 40.3094C130.328 40.3094 131.267 40.1334 132.088 39.7814C132.949 39.3903 133.653 38.7449 134.2 37.8454C134.748 36.9458 135.061 35.6943 135.139 34.0907L137.368 36.4374C137.173 38.6667 136.625 40.544 135.726 42.0694C134.865 43.5947 133.653 44.768 132.088 45.5894C130.563 46.4107 128.686 46.8214 126.456 46.8214Z" fill="black"/>
<path d="M149.498 46V35.4987H159.823V46H149.498Z" fill="#9CEE69"/>
<path d="M185.603 47.056C182.983 47.056 180.675 46.5085 178.681 45.4134C176.686 44.2792 175.122 42.656 173.987 40.544C172.853 38.432 172.247 35.8507 172.169 32.8H173.283V46H165.833V3.17338H175.219V24.9387L172.99 27.7547C173.107 24.5085 173.714 21.7903 174.809 19.6C175.943 17.3707 177.488 15.7085 179.443 14.6134C181.399 13.4792 183.628 12.912 186.131 12.912C188.322 12.912 190.297 13.3227 192.057 14.144C193.856 14.9263 195.381 16.0605 196.633 17.5467C197.884 18.9938 198.842 20.7147 199.507 22.7094C200.211 24.704 200.563 26.8747 200.563 29.2214V30.512C200.563 32.8587 200.211 35.0294 199.507 37.024C198.842 39.0187 197.845 40.7787 196.515 42.304C195.225 43.7903 193.66 44.9636 191.822 45.824C189.984 46.6454 187.911 47.056 185.603 47.056ZM183.139 39.1947C184.743 39.1947 186.131 38.8036 187.305 38.0214C188.517 37.2392 189.456 36.144 190.121 34.736C190.786 33.2889 191.118 31.6658 191.118 29.8667C191.118 28.0285 190.786 26.4249 190.121 25.056C189.456 23.6872 188.517 22.6312 187.305 21.888C186.131 21.1058 184.743 20.7147 183.139 20.7147C181.731 20.7147 180.402 21.0472 179.15 21.712C177.898 22.3769 176.882 23.3352 176.099 24.5867C175.356 25.7992 174.985 27.2854 174.985 29.0454V31.216C174.985 32.8978 175.376 34.3449 176.158 35.5574C176.979 36.7307 178.016 37.6303 179.267 38.256C180.519 38.8818 181.81 39.1947 183.139 39.1947Z" fill="black"/>
<path d="M207.435 46V13.8507H216.821V46H207.435ZM203.152 20.7734V13.8507H216.821V20.7734H203.152ZM211.072 10.6827C209.312 10.6827 208.002 10.2329 207.141 9.33338C206.32 8.39471 205.909 7.22138 205.909 5.81338C205.909 4.36626 206.32 3.19293 207.141 2.29338C208.002 1.35471 209.312 0.885376 211.072 0.885376C212.832 0.885376 214.123 1.35471 214.944 2.29338C215.804 3.19293 216.235 4.36626 216.235 5.81338C216.235 7.22138 215.804 8.39471 214.944 9.33338C214.123 10.2329 212.832 10.6827 211.072 10.6827Z" fill="black"/>
<path d="M239.994 47.1147C237.178 47.1147 234.675 46.6845 232.484 45.824C230.294 44.9245 228.436 43.712 226.911 42.1867C225.425 40.6614 224.291 38.9209 223.508 36.9654C222.726 34.9707 222.335 32.8783 222.335 30.688V29.3387C222.335 27.1094 222.726 24.9974 223.508 23.0027C224.33 20.9689 225.503 19.1894 227.028 17.664C228.593 16.1387 230.47 14.9458 232.66 14.0854C234.851 13.1858 237.295 12.736 239.994 12.736C242.771 12.736 245.235 13.1858 247.386 14.0854C249.576 14.9458 251.434 16.1387 252.959 17.664C254.484 19.1894 255.658 20.9689 256.479 23.0027C257.3 24.9974 257.711 27.1094 257.711 29.3387V30.688C257.711 32.8783 257.32 34.9707 256.538 36.9654C255.756 38.9209 254.602 40.6614 253.076 42.1867C251.59 43.712 249.752 44.9245 247.562 45.824C245.372 46.6845 242.849 47.1147 239.994 47.1147ZM239.994 39.1947C241.832 39.1947 243.357 38.8036 244.57 38.0214C245.782 37.2392 246.701 36.144 247.327 34.736C247.992 33.328 248.324 31.7636 248.324 30.0427C248.324 28.2045 247.992 26.6009 247.327 25.232C246.662 23.824 245.704 22.7094 244.452 21.888C243.24 21.0667 241.754 20.656 239.994 20.656C238.273 20.656 236.787 21.0667 235.535 21.888C234.284 22.7094 233.325 23.824 232.66 25.232C232.035 26.6009 231.722 28.2045 231.722 30.0427C231.722 31.7636 232.035 33.328 232.66 34.736C233.286 36.144 234.225 37.2392 235.476 38.0214C236.728 38.8036 238.234 39.1947 239.994 39.1947Z" fill="black"/>
</svg>
