<svg xmlns="http://www.w3.org/2000/svg" width="319" height="50" fill="none" viewBox="0 0 319 50"><g clip-path="url(#clip0_1089_4108)"><path fill="#FC5504" d="M27.0922 44.5638C26.9781 46.6701 26.0107 47.7491 24.123 47.9721C22.0505 48.1951 20.8235 47.2036 20.1353 44.5638H27.0922Z"/><path fill="#FA9D00" d="M38.1464 44.5638C38.0323 46.6701 37.0649 47.7491 35.1772 47.9721C33.1047 48.1951 31.8777 47.2036 31.1895 44.5638H38.1464Z"/><path fill="#045953" d="M49.9995 5.75828C49.0596 9.95494 48.2062 13.7534 47.3489 17.5479C46.8376 19.8095 46.1691 22.0472 45.8427 24.3168C45.5713 26.3354 44.4702 26.8451 42.7201 27.084C36.2941 27.9759 29.8878 28.9594 23.4736 29.915C23.0304 30.0124 22.5931 30.1361 22.1641 30.2852C23.8905 32.2761 25.963 32.6742 28.126 32.6981C32.1884 32.7379 36.2509 32.6981 40.3173 32.6981C43.2589 32.6981 43.2589 32.6981 43.255 35.5729V36.1701C43.255 40.9481 43.255 40.9481 38.4375 40.9481C35.0318 40.9481 31.6221 40.9839 28.2125 40.976C20.4691 40.9401 14.633 36.8072 12.0374 29.473C10.9166 26.2877 9.90985 23.1023 8.75364 19.6025C11.1132 18.8061 13.3234 18.0098 15.5729 17.4205C15.9662 17.321 16.8825 18.0934 17.0988 18.6429C18.4634 22.1189 18.428 22.1945 22.1169 21.6809C26.8361 21.0239 31.5553 20.1878 36.3059 19.5905C38.056 19.3676 38.8543 18.5951 39.0077 16.887C39.0824 16.0469 39.3184 15.2227 39.5583 14.0122H37.0571C29.1288 14.0122 21.2006 14.068 13.2723 14.0361C10.1274 14.0111 7.08781 12.8859 4.66877 10.8511C2.24974 8.81626 0.600102 5.99713 -0.000487087 2.87159C-0.00072168 2.57785 0.0336033 2.28512 0.101762 1.9996C2.61081 1.9996 5.14345 1.96775 7.67216 2.05535C8.06543 2.05535 8.53735 2.60482 8.7851 3.01891C10.0003 5.03362 11.7503 5.80606 14.0549 5.80606C25.2591 5.7543 36.4711 5.76226 47.6674 5.75032L49.9995 5.75828Z"/></g><path fill="#045953" d="M69.8721 45.7231V35.8216H76.6482C78.4175 35.8216 79.9985 35.575 81.3914 35.0818C82.8219 34.5507 84.0265 33.8109 85.0053 32.8625C85.9841 31.8761 86.737 30.7001 87.264 29.3343C87.791 27.9307 88.0545 26.3563 88.0545 24.6112C88.0545 22.7902 87.791 21.1969 87.264 19.8311C86.737 18.4275 85.9841 17.2704 85.0053 16.3599C84.0265 15.4115 82.8219 14.7096 81.3914 14.2544C79.9985 13.7612 78.4175 13.5146 76.6482 13.5146H69.8721V3.61308H76.1964C79.9233 3.61308 83.1795 4.1442 85.9653 5.20644C88.7886 6.26867 91.1414 7.74821 93.0237 9.64506C94.9059 11.504 96.3176 13.6664 97.2587 16.1323C98.1998 18.5982 98.6704 21.2158 98.6704 23.9852V25.2372C98.6704 27.7789 98.1998 30.2828 97.2587 32.7487C96.3176 35.1766 94.9059 37.377 93.0237 39.3497C91.1414 41.2845 88.7886 42.8399 85.9653 44.0159C83.1795 45.1541 79.9233 45.7231 76.1964 45.7231H69.8721ZM60.4985 45.7231V3.61308H71.0014V45.7231H60.4985Z"/><path fill="#045953" d="M114.443 46.5198C110.904 46.5198 108.156 45.3627 106.199 43.0486C104.279 40.6965 103.319 37.1114 103.319 32.2934V14.0837H113.596V32.578C113.596 33.9816 114.01 35.1197 114.838 35.9923C115.666 36.8648 116.777 37.3011 118.17 37.3011C119.563 37.3011 120.692 36.8648 121.558 35.9923C122.424 35.1197 122.856 33.9437 122.856 32.4641V14.0837H133.133V45.4955H125.002V32.2934H125.567C125.567 35.5181 125.153 38.1926 124.325 40.3171C123.534 42.4036 122.348 43.959 120.767 44.9833C119.186 46.0076 117.229 46.5198 114.895 46.5198H114.443Z"/><path fill="#045953" d="M162.857 45.4955L153.653 30.8139H149.475L161.671 14.0837H172.4L160.824 29.8465V24.8388L174.32 45.4955H162.857ZM140.722 45.4955V3.95452H150.999V45.4955H140.722Z"/><path fill="#045953" d="M196.253 45.4955V36.2768H194.559V26.4322C194.559 24.9906 194.22 23.9283 193.542 23.2455C192.902 22.5247 191.83 22.1643 190.324 22.1643C189.608 22.1643 188.554 22.1832 187.162 22.2212C185.769 22.2591 184.301 22.316 182.757 22.3919C181.214 22.4678 179.802 22.5436 178.522 22.6195V13.9699C179.426 13.894 180.498 13.8181 181.741 13.7423C182.983 13.6664 184.263 13.6095 185.58 13.5715C186.936 13.5336 188.178 13.5146 189.307 13.5146C192.507 13.5146 195.218 13.9888 197.439 14.9373C199.697 15.8857 201.41 17.3083 202.577 19.2052C203.782 21.102 204.384 23.511 204.384 26.4322V45.4955H196.253ZM186.371 46.2922C184.188 46.2922 182.249 45.8938 180.555 45.0972C178.861 44.3005 177.525 43.1624 176.546 41.6828C175.605 40.1653 175.134 38.3633 175.134 36.2768C175.134 33.9247 175.755 32.0279 176.997 30.5863C178.24 29.1067 179.953 28.0255 182.136 27.3427C184.319 26.6598 186.823 26.3184 189.646 26.3184H195.688V31.6675H189.646C188.253 31.6675 187.18 32.0279 186.427 32.7487C185.675 33.4315 185.298 34.361 185.298 35.537C185.298 36.6751 185.675 37.6046 186.427 38.3254C187.18 39.0083 188.253 39.3497 189.646 39.3497C190.55 39.3497 191.34 39.198 192.018 38.8945C192.733 38.553 193.316 37.984 193.768 37.1873C194.22 36.3906 194.483 35.2904 194.559 33.8868L196.93 36.163C196.742 38.3254 196.215 40.1653 195.349 41.6828C194.521 43.1624 193.354 44.3005 191.848 45.0972C190.38 45.8938 188.554 46.2922 186.371 46.2922Z"/><path fill="#045953" d="M209.783 45.4955V34.2282H220.85V45.4955H209.783Z"/><path fill="#045953" d="M246.959 46.5198C244.399 46.5198 242.159 45.9887 240.239 44.9264C238.357 43.8642 236.87 42.3088 235.779 40.2602C234.724 38.2116 234.16 35.7078 234.085 32.7487H234.988V45.4955H226.857V3.95452H237.134V25.351L234.875 27.6272C234.988 24.5543 235.571 21.9366 236.626 19.7742C237.68 17.6118 239.129 15.9805 240.974 14.8804C242.856 13.7423 245.02 13.1732 247.467 13.1732C249.575 13.1732 251.476 13.5715 253.17 14.3682C254.864 15.127 256.295 16.2271 257.462 17.6687C258.667 19.0724 259.589 20.7416 260.229 22.6764C260.869 24.6112 261.189 26.7357 261.189 29.0498V30.4155C261.189 32.7297 260.869 34.8731 260.229 36.8459C259.589 38.7806 258.648 40.4878 257.405 41.9674C256.163 43.409 254.657 44.5281 252.888 45.3248C251.156 46.1215 249.18 46.5198 246.959 46.5198ZM244.023 37.984C245.378 37.984 246.564 37.6425 247.58 36.9597C248.634 36.2389 249.444 35.2525 250.008 34.0006C250.611 32.7487 250.912 31.326 250.912 29.7327C250.912 28.1014 250.611 26.6977 250.008 25.5217C249.444 24.3077 248.653 23.3782 247.637 22.7333C246.62 22.0504 245.416 21.709 244.023 21.709C242.78 21.709 241.613 21.9935 240.522 22.5626C239.468 23.1317 238.602 23.9663 237.924 25.0664C237.247 26.1666 236.908 27.4944 236.908 29.0498V30.9846C236.908 32.4641 237.266 33.735 237.981 34.7973C238.696 35.8216 239.599 36.6182 240.691 37.1873C241.783 37.7184 242.893 37.984 244.023 37.984Z"/><path fill="#045953" d="M268.304 45.4955V14.0837H278.581V45.4955H268.304ZM264.351 21.5952V14.0837H278.581V21.5952H264.351ZM272.539 11.5798C270.657 11.5798 269.264 11.1056 268.361 10.1572C267.495 9.17085 267.062 7.91893 267.062 6.40145C267.062 4.88397 267.495 3.65102 268.361 2.7026C269.264 1.71623 270.638 1.22305 272.483 1.22305C274.365 1.22305 275.739 1.71623 276.605 2.7026C277.471 3.65102 277.904 4.88397 277.904 6.40145C277.904 7.91893 277.471 9.17085 276.605 10.1572C275.739 11.1056 274.384 11.5798 272.539 11.5798Z"/><path fill="#045953" d="M301.665 46.6336C298.917 46.6336 296.47 46.2163 294.324 45.3817C292.178 44.5471 290.352 43.39 288.847 41.9104C287.379 40.4309 286.249 38.7237 285.459 36.789C284.706 34.8542 284.329 32.7866 284.329 30.5863V29.2205C284.329 26.9443 284.725 24.8198 285.515 22.8471C286.343 20.8744 287.51 19.1483 289.016 17.6687C290.522 16.1892 292.348 15.0321 294.493 14.1975C296.639 13.3629 299.03 12.9456 301.665 12.9456C304.338 12.9456 306.728 13.3629 308.836 14.1975C310.982 15.0321 312.808 16.1892 314.313 17.6687C315.819 19.1483 316.967 20.8744 317.758 22.8471C318.586 24.8198 319 26.9443 319 29.2205V30.5863C319 32.7866 318.605 34.8542 317.814 36.789C317.061 38.7237 315.932 40.4309 314.426 41.9104C312.958 43.39 311.151 44.5471 309.005 45.3817C306.86 46.2163 304.413 46.6336 301.665 46.6336ZM301.665 37.984C303.246 37.984 304.545 37.6425 305.561 36.9597C306.615 36.2768 307.406 35.3284 307.933 34.1144C308.46 32.8625 308.723 31.4588 308.723 29.9034C308.723 28.2721 308.441 26.8495 307.876 25.6355C307.349 24.3836 306.559 23.3972 305.505 22.6764C304.45 21.9556 303.171 21.5952 301.665 21.5952C300.159 21.5952 298.879 21.9556 297.825 22.6764C296.771 23.3972 295.962 24.3836 295.397 25.6355C294.87 26.8495 294.606 28.2721 294.606 29.9034C294.606 31.4588 294.87 32.8625 295.397 34.1144C295.924 35.3284 296.714 36.2768 297.769 36.9597C298.823 37.6425 300.121 37.984 301.665 37.984Z"/><defs><clipPath id="clip0_1089_4108"><rect width="50" height="46" fill="#fff" transform="translate(0 2)"/></clipPath></defs></svg>